# xmcd
#
# Track frame offsets:
#	150
#	42307
#	66516
#	86352
#	106818
#	128986
#	148940
#	172276
#	202208
#	225312
#
# Disc length: 3420 seconds
#
# Revision: 8
# Processed by: cddbd v1.5.2PL0 Copyright (c) Steve Scherf et al.
# Submitted via: Jack! The Knife 20 Magnifico
#
DISCID=950d5a0a
DTITLE=Gamma Ray - Empire Of The Undead
DYEAR=2014
DGENRE=Metal
TTITLE0=Avalon
TTITLE1=Hellbent
TTITLE2=Pale Rider
TTITLE3=Born To Fly
TTITLE4=Master Of Confusion
TTITLE5=Empire Of The Undead
TTITLE6=Time For Deliverance
TTITLE7=Demonseed
TTITLE8=Seven
TTITLE9=I Will Return
EXTD=Eike Freese and Dirk Schlächter
EXTT0=Kai Hansen
EXTT1=Kai Hansen
EXTT2=Ehré, Hansen
EXTT3=Henjo Richter
EXTT4=Kai Hansen
EXTT5=Hansen, Sielck
EXTT6=Dirk Schlächter
EXTT7=Schlächter, Hansen
EXTT8=Kai Hansen
EXTT9=Henjo Richter
PLAYORDER=
